# Blender v2.79 (sub 0) OBJ File: ''
# www.blender.org
mtllib arena.mtl
o Sphere
v -0.000005 0.224756 -50.000008
v -0.000005 -4.652502 -49.039276
v -0.000005 -20.561989 -27.778522
v 9.754514 0.224756 -49.039276
v 9.567083 -4.652502 -48.097000
v 9.011995 -9.342328 -45.306389
v 8.110582 -13.664501 -40.774673
v 6.897482 -17.452915 -34.676006
v 5.419316 -20.561989 -27.244766
v 3.732888 -22.872234 -18.766520
v 1.903007 -24.294876 -9.567087
v 19.134172 0.224756 -46.193985
v 18.766514 -4.652502 -45.306381
v 17.677671 -9.342328 -42.677685
v 15.909483 -13.664501 -38.408897
v 13.529903 -17.452915 -32.664082
v 10.630377 -20.561989 -25.664005
v 7.322329 -22.872234 -17.677675
v 3.732888 -24.294876 -9.011998
v 27.778515 0.224756 -41.573486
v 27.244757 -4.652502 -40.774666
v 25.663998 -9.342328 -38.408897
v 23.096991 -13.664501 -34.567093
v 19.642376 -17.452915 -29.396898
v 15.432917 -20.561989 -23.096992
v 10.630377 -22.872234 -15.909487
v 5.419316 -24.294876 -8.110584
v 35.355343 0.224756 -35.355343
v 34.675999 -4.652502 -34.675999
v 32.664074 -9.342328 -32.664082
v 29.396894 -13.664501 -29.396894
v 25.000002 -17.452915 -25.000008
v 19.642376 -20.561989 -19.642378
v 13.529903 -22.872234 -13.529907
v 6.897481 -24.294876 -6.897485
v 41.573486 0.224756 -27.778513
v 40.774658 -4.652502 -27.244755
v 38.408890 -9.342328 -25.664005
v 34.567093 -13.664501 -23.096991
v 29.396894 -17.452915 -19.642378
v 23.096991 -20.561989 -15.432917
v 15.909485 -22.872234 -10.630379
v 8.110581 -24.294876 -5.419319
v 46.193981 0.224756 -19.134174
v 45.306366 -4.652502 -18.766510
v 42.677670 -9.342328 -17.677675
v 38.408894 -13.664501 -15.909482
v 32.664078 -17.452915 -13.529906
v 25.664001 -20.561989 -10.630377
v 17.677671 -22.872234 -7.322331
v 9.011995 -24.294876 -3.732891
v 49.039268 0.224756 -9.754514
v 48.096985 -4.652502 -9.567080
v 45.306374 -9.342328 -9.012001
v 40.774658 -13.664501 -8.110581
v 34.676003 -17.452915 -6.897484
v 27.244759 -20.561989 -5.419317
v 18.766516 -22.872234 -3.732891
v 9.567082 -24.294876 -1.903010
v 50.000004 0.224756 0.000006
v 49.039261 -4.652502 0.000007
v 46.193977 -9.342328 -0.000001
v 41.573483 -13.664501 0.000004
v 35.355343 -17.452915 0.000003
v 27.778511 -20.561989 0.000004
v 19.134172 -22.872234 0.000002
v 9.754513 -24.294876 0.000002
v 49.039268 0.224756 9.754524
v 48.096981 -4.652502 9.567092
v 45.306374 -9.342328 9.011997
v 40.774658 -13.664501 8.110589
v 34.675999 -17.452915 6.897489
v 27.244757 -20.561989 5.419324
v 18.766514 -22.872234 3.732895
v 9.567082 -24.294876 1.903015
v 46.193977 0.224756 19.134178
v 45.306358 -4.652502 18.766518
v 42.677670 -9.342328 17.677670
v 38.408886 -13.664501 15.909489
v 32.664074 -17.452915 13.529907
v 25.663996 -20.561989 10.630383
v 17.677668 -22.872234 7.322335
v 9.011994 -24.294876 3.732895
v 41.573483 0.224756 27.778521
v 40.774647 -4.652502 27.244759
v 38.408886 -9.342328 25.664001
v 34.567081 -13.664501 23.096996
v 29.396893 -17.452915 19.642378
v 23.096985 -20.561989 15.432920
v 15.909481 -22.872234 10.630381
v 8.110579 -24.294876 5.419322
v 35.355335 0.224756 35.355350
v 34.675983 -4.652502 34.675995
v 32.664074 -9.342328 32.664078
v 29.396881 -13.664501 29.396896
v 24.999998 -17.452915 25.000004
v 19.642370 -20.561989 19.642378
v 13.529900 -22.872234 13.529907
v 6.897480 -24.294876 6.897489
v 27.778507 0.224756 41.573486
v 27.244743 -4.652502 40.774654
v 25.663998 -9.342328 38.408894
v 23.096981 -13.664501 34.567093
v 19.642370 -17.452915 29.396896
v 15.432909 -20.561989 23.096992
v 10.630373 -22.872234 15.909486
v 5.419314 -24.294876 8.110588
v -0.000005 -24.775242 0.000003
v 19.134163 0.224756 46.193985
v 18.766502 -4.652502 45.306366
v 17.677668 -9.342328 42.677670
v 15.909472 -13.664501 38.408890
v 13.529897 -17.452915 32.664078
v 10.630370 -20.561989 25.664001
v 7.322325 -22.872234 17.677671
v 3.732887 -24.294876 9.012002
v 9.754507 0.224756 49.039272
v 9.567076 -4.652502 48.096981
v 9.011995 -9.342328 45.306374
v 8.110573 -13.664501 40.774651
v 6.897478 -17.452915 34.676003
v 5.419312 -20.561989 27.244759
v 3.732887 -22.872234 18.766516
v 1.903006 -24.294876 9.567089
v -0.000010 0.224756 50.000004
v -0.000010 -4.652502 49.039253
v -0.000002 -9.342328 46.193977
v -0.000010 -13.664501 41.573471
v -0.000007 -17.452915 35.355343
v -0.000006 -20.561989 27.778511
v -0.000005 -22.872234 19.134172
v -0.000005 -24.294876 9.754519
v -9.754527 0.224756 49.039265
v -9.567093 -4.652502 48.096977
v -9.012001 -9.342328 45.306374
v -8.110592 -13.664501 40.774647
v -6.897491 -17.452915 34.675995
v -5.419324 -20.561989 27.244757
v -3.732896 -22.872234 18.766514
v -1.903017 -24.294876 9.567088
v -19.134184 0.224756 46.193977
v -18.766520 -4.652502 45.306358
v -17.677671 -9.342328 42.677670
v -15.909487 -13.664501 38.408875
v -13.529906 -17.452915 32.664074
v -10.630380 -20.561989 25.663998
v -7.322335 -22.872234 17.677668
v -3.732896 -24.294876 9.011999
v -27.778526 0.224756 41.573479
v -27.244759 -4.652502 40.774643
v -25.664001 -9.342328 38.408890
v -23.096991 -13.664501 34.567074
v -19.642378 -17.452915 29.396893
v -15.432916 -20.561989 23.096989
v -10.630379 -22.872234 15.909480
v -5.419323 -24.294876 8.110584
v -35.355350 0.224756 35.355335
v -34.675995 -4.652502 34.675983
v -32.664074 -9.342328 32.664074
v -29.396889 -13.664501 29.396875
v -25.000004 -17.452915 25.000000
v -19.642376 -20.561989 19.642370
v -13.529905 -22.872234 13.529900
v -6.897488 -24.294876 6.897486
v -41.573486 0.224756 27.778507
v -40.774651 -4.652502 27.244740
v -38.408890 -9.342328 25.664001
v -34.567081 -13.664501 23.096977
v -29.396894 -17.452915 19.642372
v -23.096991 -20.561989 15.432911
v -15.909482 -22.872234 10.630373
v -8.110587 -24.294876 5.419320
v -46.193981 0.224756 19.134163
v -45.306362 -4.652502 18.766499
v -42.677673 -9.342328 17.677671
v -38.408878 -13.664501 15.909471
v -32.664078 -17.452915 13.529900
v -25.663998 -20.561989 10.630374
v -17.677668 -22.872234 7.322328
v -9.012000 -24.294876 3.732893
v -49.039265 0.224756 9.754509
v -48.096977 -4.652502 9.567074
v -45.306377 -9.342328 9.012001
v -40.774647 -13.664501 8.110575
v -34.676003 -17.452915 6.897482
v -27.244757 -20.561989 5.419317
v -18.766510 -22.872234 3.732890
v -9.567087 -24.294876 1.903014
v -49.999996 0.224756 -0.000006
v -49.039249 -4.652502 -0.000008
v -46.193977 -9.342328 0.000003
v -41.573467 -13.664501 -0.000006
v -35.355343 -17.452915 -0.000004
v -27.778509 -20.561989 -0.000000
v -19.134167 -22.872234 -0.000000
v -9.754518 -24.294876 0.000003
v -49.039261 0.224756 -9.754520
v -48.096966 -4.652502 -9.567090
v -45.306374 -9.342328 -9.011994
v -40.774643 -13.664501 -8.110586
v -34.675999 -17.452915 -6.897488
v -27.244755 -20.561989 -5.419317
v -18.766508 -22.872234 -3.732890
v -9.567087 -24.294876 -1.903008
v -46.193966 0.224756 -19.134174
v -45.306351 -4.652502 -18.766512
v -42.677670 -9.342328 -17.677666
v -38.408871 -13.664501 -15.909481
v -32.664074 -17.452915 -13.529906
v -25.663994 -20.561989 -10.630373
v -17.677666 -22.872234 -7.322327
v -9.012000 -24.294876 -3.732887
v -41.573467 0.224756 -27.778509
v -40.774635 -4.652502 -27.244747
v -38.408886 -9.342328 -25.663994
v -34.567066 -13.664501 -23.096983
v -29.396889 -17.452915 -19.642376
v -23.096981 -20.561989 -15.432910
v -15.909477 -22.872234 -10.630370
v -8.110586 -24.294876 -5.419313
v -35.355324 0.224756 -35.355331
v -34.675976 -4.652502 -34.675980
v -32.664074 -9.342328 -32.664066
v -29.396870 -13.664501 -29.396879
v -24.999998 -17.452915 -24.999998
v -19.642366 -20.561989 -19.642366
v -13.529898 -22.872234 -13.529896
v -6.897487 -24.294876 -6.897479
v -27.778496 0.224756 -41.573471
v -27.244736 -4.652502 -40.774635
v -25.663998 -9.342328 -38.408878
v -23.096972 -13.664501 -34.567070
v -19.642370 -17.452915 -29.396887
v -15.432907 -20.561989 -23.096979
v -10.630373 -22.872234 -15.909473
v -5.419322 -24.294876 -8.110579
v -19.134157 0.224756 -46.193962
v -18.766495 -4.652502 -45.306343
v -17.677670 -9.342328 -42.677658
v -15.909466 -13.664501 -38.408867
v -13.529898 -17.452915 -32.664070
v -10.630370 -20.561989 -25.663984
v -7.322330 -22.872234 -17.677660
v -3.732895 -24.294876 -9.011992
v -9.754504 0.224756 -49.039238
v -9.567072 -4.652502 -48.096958
v -9.011999 -9.342328 -45.306362
v -8.110571 -13.664501 -40.774635
v -6.897482 -17.452915 -34.675987
v -5.419316 -20.561989 -27.244738
v -3.732892 -22.872234 -18.766502
v -1.903016 -24.294876 -9.567080
v -0.000002 -9.342328 -46.193966
v 0.000008 -13.664501 -41.573452
v 0.000002 -17.452915 -35.355331
v -0.000002 -22.872234 -19.134159
v -0.000005 -24.294876 -9.754509
vn 0.0839 -0.5169 -0.8519
vn 0.0671 -0.7286 -0.6816
vn 0.0512 -0.8529 -0.5196
vn 0.0374 -0.9245 -0.3794
vn 0.0254 -0.9658 -0.2581
vn 0.0148 -0.9886 -0.1499
vn 0.0048 -0.9988 -0.0492
vn 0.0962 -0.1924 -0.9766
vn 0.0143 -0.9988 -0.0473
vn 0.2849 -0.1924 -0.9391
vn 0.2485 -0.5169 -0.8192
vn 0.1988 -0.7286 -0.6554
vn 0.1516 -0.8529 -0.4996
vn 0.1107 -0.9245 -0.3648
vn 0.0753 -0.9658 -0.2482
vn 0.0437 -0.9886 -0.1442
vn 0.1797 -0.9245 -0.3362
vn 0.1223 -0.9658 -0.2287
vn 0.0710 -0.9886 -0.1329
vn 0.0233 -0.9988 -0.0436
vn 0.4626 -0.1924 -0.8654
vn 0.4035 -0.5169 -0.7550
vn 0.3229 -0.7286 -0.6040
vn 0.2461 -0.8529 -0.4605
vn 0.6225 -0.1924 -0.7586
vn 0.5431 -0.5169 -0.6617
vn 0.4345 -0.7286 -0.5294
vn 0.3312 -0.8529 -0.4036
vn 0.2418 -0.9245 -0.2947
vn 0.1645 -0.9658 -0.2005
vn 0.0956 -0.9886 -0.1165
vn 0.0314 -0.9988 -0.0382
vn 0.2947 -0.9245 -0.2418
vn 0.2005 -0.9658 -0.1645
vn 0.1165 -0.9886 -0.0956
vn 0.0382 -0.9988 -0.0314
vn 0.7586 -0.1924 -0.6225
vn 0.6617 -0.5169 -0.5431
vn 0.5294 -0.7286 -0.4345
vn 0.4036 -0.8529 -0.3312
vn 0.7550 -0.5169 -0.4035
vn 0.6040 -0.7286 -0.3229
vn 0.4605 -0.8529 -0.2461
vn 0.3362 -0.9245 -0.1797
vn 0.2287 -0.9658 -0.1223
vn 0.1329 -0.9886 -0.0710
vn 0.0436 -0.9988 -0.0233
vn 0.8654 -0.1924 -0.4626
vn 0.2482 -0.9658 -0.0753
vn 0.1442 -0.9886 -0.0437
vn 0.0473 -0.9988 -0.0143
vn 0.9391 -0.1924 -0.2849
vn 0.8192 -0.5169 -0.2485
vn 0.6554 -0.7286 -0.1988
vn 0.4996 -0.8529 -0.1516
vn 0.3648 -0.9245 -0.1107
vn 0.8519 -0.5169 -0.0839
vn 0.6816 -0.7286 -0.0671
vn 0.5196 -0.8529 -0.0512
vn 0.3794 -0.9245 -0.0374
vn 0.2581 -0.9658 -0.0254
vn 0.1499 -0.9886 -0.0148
vn 0.0492 -0.9988 -0.0048
vn 0.9766 -0.1924 -0.0962
vn 0.2581 -0.9658 0.0254
vn 0.1499 -0.9886 0.0148
vn 0.0492 -0.9988 0.0048
vn 0.9766 -0.1924 0.0962
vn 0.8519 -0.5169 0.0839
vn 0.6816 -0.7286 0.0671
vn 0.5196 -0.8529 0.0512
vn 0.3794 -0.9245 0.0374
vn 0.6554 -0.7286 0.1988
vn 0.4996 -0.8529 0.1516
vn 0.3648 -0.9245 0.1107
vn 0.2482 -0.9658 0.0753
vn 0.1442 -0.9886 0.0437
vn 0.0473 -0.9988 0.0143
vn 0.9391 -0.1924 0.2849
vn 0.8192 -0.5169 0.2485
vn 0.1329 -0.9886 0.0710
vn 0.0436 -0.9988 0.0233
vn 0.8654 -0.1924 0.4626
vn 0.7550 -0.5169 0.4035
vn 0.6040 -0.7286 0.3229
vn 0.4605 -0.8529 0.2461
vn 0.3362 -0.9245 0.1797
vn 0.2287 -0.9658 0.1223
vn 0.4036 -0.8529 0.3312
vn 0.2947 -0.9245 0.2418
vn 0.2005 -0.9658 0.1645
vn 0.1165 -0.9886 0.0956
vn 0.0382 -0.9988 0.0314
vn 0.7586 -0.1924 0.6225
vn 0.6617 -0.5169 0.5431
vn 0.5294 -0.7286 0.4345
vn 0.0314 -0.9988 0.0382
vn 0.6225 -0.1924 0.7586
vn 0.5431 -0.5169 0.6617
vn 0.4345 -0.7286 0.5294
vn 0.3312 -0.8529 0.4036
vn 0.2418 -0.9245 0.2947
vn 0.1645 -0.9658 0.2005
vn 0.0956 -0.9886 0.1165
vn 0.2461 -0.8529 0.4605
vn 0.1797 -0.9245 0.3362
vn 0.1223 -0.9658 0.2287
vn 0.0710 -0.9886 0.1329
vn 0.0233 -0.9988 0.0436
vn 0.4626 -0.1924 0.8654
vn 0.4035 -0.5169 0.7550
vn 0.3229 -0.7286 0.6040
vn 0.0143 -0.9988 0.0473
vn 0.2849 -0.1924 0.9391
vn 0.2485 -0.5169 0.8192
vn 0.1988 -0.7286 0.6554
vn 0.1516 -0.8529 0.4996
vn 0.1107 -0.9245 0.3648
vn 0.0753 -0.9658 0.2482
vn 0.0437 -0.9886 0.1442
vn 0.0374 -0.9245 0.3794
vn 0.0254 -0.9658 0.2581
vn 0.0148 -0.9886 0.1499
vn 0.0048 -0.9988 0.0492
vn 0.0962 -0.1924 0.9766
vn 0.0839 -0.5169 0.8519
vn 0.0671 -0.7286 0.6816
vn 0.0512 -0.8529 0.5196
vn -0.0962 -0.1924 0.9766
vn -0.0839 -0.5169 0.8519
vn -0.0671 -0.7286 0.6816
vn -0.0512 -0.8529 0.5196
vn -0.0374 -0.9245 0.3794
vn -0.0254 -0.9658 0.2581
vn -0.0148 -0.9886 0.1499
vn -0.0048 -0.9988 0.0492
vn -0.1107 -0.9245 0.3648
vn -0.0753 -0.9658 0.2482
vn -0.0437 -0.9886 0.1442
vn -0.0143 -0.9988 0.0473
vn -0.2849 -0.1924 0.9391
vn -0.2485 -0.5169 0.8192
vn -0.1988 -0.7286 0.6554
vn -0.1516 -0.8529 0.4996
vn -0.4035 -0.5169 0.7550
vn -0.3229 -0.7286 0.6040
vn -0.2461 -0.8529 0.4605
vn -0.1797 -0.9245 0.3362
vn -0.1223 -0.9658 0.2287
vn -0.0710 -0.9886 0.1329
vn -0.0233 -0.9988 0.0436
vn -0.4626 -0.1924 0.8654
vn -0.1645 -0.9658 0.2005
vn -0.0956 -0.9886 0.1165
vn -0.0314 -0.9988 0.0382
vn -0.6225 -0.1924 0.7586
vn -0.5431 -0.5169 0.6617
vn -0.4345 -0.7286 0.5294
vn -0.3312 -0.8529 0.4036
vn -0.2418 -0.9245 0.2947
vn -0.5294 -0.7286 0.4345
vn -0.4036 -0.8529 0.3312
vn -0.2947 -0.9245 0.2418
vn -0.2005 -0.9658 0.1645
vn -0.1165 -0.9886 0.0956
vn -0.0382 -0.9988 0.0314
vn -0.7586 -0.1924 0.6225
vn -0.6617 -0.5169 0.5431
vn -0.1329 -0.9886 0.0710
vn -0.0436 -0.9988 0.0233
vn -0.8654 -0.1924 0.4626
vn -0.7550 -0.5169 0.4035
vn -0.6040 -0.7286 0.3229
vn -0.4605 -0.8529 0.2461
vn -0.3362 -0.9245 0.1797
vn -0.2287 -0.9658 0.1223
vn -0.6554 -0.7286 0.1988
vn -0.4996 -0.8529 0.1516
vn -0.3648 -0.9245 0.1107
vn -0.2482 -0.9658 0.0753
vn -0.1442 -0.9886 0.0437
vn -0.0473 -0.9988 0.0143
vn -0.9391 -0.1924 0.2849
vn -0.8192 -0.5169 0.2485
vn -0.1499 -0.9886 0.0148
vn -0.0492 -0.9988 0.0048
vn -0.9766 -0.1924 0.0962
vn -0.8519 -0.5169 0.0839
vn -0.6816 -0.7286 0.0671
vn -0.5196 -0.8529 0.0512
vn -0.3794 -0.9245 0.0374
vn -0.2581 -0.9658 0.0254
vn -0.5196 -0.8529 -0.0512
vn -0.3794 -0.9245 -0.0374
vn -0.2581 -0.9658 -0.0254
vn -0.1499 -0.9886 -0.0148
vn -0.0492 -0.9988 -0.0048
vn -0.9766 -0.1924 -0.0962
vn -0.8519 -0.5169 -0.0839
vn -0.6816 -0.7286 -0.0671
vn -0.0473 -0.9988 -0.0143
vn -0.9391 -0.1924 -0.2849
vn -0.8192 -0.5169 -0.2485
vn -0.6554 -0.7286 -0.1988
vn -0.4996 -0.8529 -0.1516
vn -0.3648 -0.9245 -0.1107
vn -0.2482 -0.9658 -0.0753
vn -0.1442 -0.9886 -0.0437
vn -0.4605 -0.8529 -0.2461
vn -0.3362 -0.9245 -0.1797
vn -0.2287 -0.9658 -0.1223
vn -0.1329 -0.9886 -0.0710
vn -0.0436 -0.9988 -0.0233
vn -0.8654 -0.1924 -0.4626
vn -0.7550 -0.5169 -0.4035
vn -0.6040 -0.7286 -0.3229
vn -0.0382 -0.9988 -0.0314
vn -0.7586 -0.1924 -0.6225
vn -0.6617 -0.5169 -0.5431
vn -0.5294 -0.7286 -0.4345
vn -0.4036 -0.8529 -0.3312
vn -0.2947 -0.9245 -0.2418
vn -0.2005 -0.9658 -0.1645
vn -0.1165 -0.9886 -0.0956
vn -0.2418 -0.9245 -0.2947
vn -0.1645 -0.9658 -0.2005
vn -0.0956 -0.9886 -0.1165
vn -0.0314 -0.9988 -0.0382
vn -0.6225 -0.1924 -0.7586
vn -0.5431 -0.5169 -0.6617
vn -0.4345 -0.7286 -0.5294
vn -0.3312 -0.8529 -0.4036
vn -0.4035 -0.5169 -0.7550
vn -0.3229 -0.7286 -0.6040
vn -0.2461 -0.8529 -0.4605
vn -0.1797 -0.9245 -0.3362
vn -0.1223 -0.9658 -0.2287
vn -0.0710 -0.9886 -0.1329
vn -0.0233 -0.9988 -0.0436
vn -0.4626 -0.1924 -0.8654
vn -0.0753 -0.9658 -0.2482
vn -0.0437 -0.9886 -0.1442
vn 0.0000 1.0000 0.0000
vn -0.0143 -0.9988 -0.0473
vn -0.2849 -0.1924 -0.9391
vn -0.2485 -0.5169 -0.8192
vn -0.1988 -0.7286 -0.6554
vn -0.1516 -0.8529 -0.4996
vn -0.1107 -0.9245 -0.3648
vn -0.0839 -0.5169 -0.8519
vn -0.0671 -0.7286 -0.6816
vn -0.0512 -0.8529 -0.5196
vn -0.0374 -0.9245 -0.3794
vn -0.0254 -0.9658 -0.2581
vn -0.0148 -0.9886 -0.1499
vn -0.0048 -0.9988 -0.0492
vn -0.0962 -0.1924 -0.9766
usemtl None
s off
f 253//1 2//1 5//1 6//1
f 254//2 253//2 6//2 7//2
f 255//3 254//3 7//3 8//3
f 3//4 255//4 8//4 9//4
f 256//5 3//5 9//5 10//5
f 257//6 256//6 10//6 11//6
f 108//7 257//7 11//7
f 2//8 1//8 4//8 5//8
f 108//9 11//9 19//9
f 5//10 4//10 12//10 13//10
f 6//11 5//11 13//11 14//11
f 7//12 6//12 14//12 15//12
f 8//13 7//13 15//13 16//13
f 9//14 8//14 16//14 17//14
f 10//15 9//15 17//15 18//15
f 11//16 10//16 18//16 19//16
f 17//17 16//17 24//17 25//17
f 18//18 17//18 25//18 26//18
f 19//19 18//19 26//19 27//19
f 108//20 19//20 27//20
f 13//21 12//21 20//21 21//21
f 14//22 13//22 21//22 22//22
f 15//23 14//23 22//23 23//23
f 16//24 15//24 23//24 24//24
f 21//25 20//25 28//25 29//25
f 22//26 21//26 29//26 30//26
f 23//27 22//27 30//27 31//27
f 24//28 23//28 31//28 32//28
f 25//29 24//29 32//29 33//29
f 26//30 25//30 33//30 34//30
f 27//31 26//31 34//31 35//31
f 108//32 27//32 35//32
f 33//33 32//33 40//33 41//33
f 34//34 33//34 41//34 42//34
f 35//35 34//35 42//35 43//35
f 108//36 35//36 43//36
f 29//37 28//37 36//37 37//37
f 30//38 29//38 37//38 38//38
f 31//39 30//39 38//39 39//39
f 32//40 31//40 39//40 40//40
f 38//41 37//41 45//41 46//41
f 39//42 38//42 46//42 47//42
f 40//43 39//43 47//43 48//43
f 41//44 40//44 48//44 49//44
f 42//45 41//45 49//45 50//45
f 43//46 42//46 50//46 51//46
f 108//47 43//47 51//47
f 37//48 36//48 44//48 45//48
f 50//49 49//49 57//49 58//49
f 51//50 50//50 58//50 59//50
f 108//51 51//51 59//51
f 45//52 44//52 52//52 53//52
f 46//53 45//53 53//53 54//53
f 47//54 46//54 54//54 55//54
f 48//55 47//55 55//55 56//55
f 49//56 48//56 56//56 57//56
f 54//57 53//57 61//57 62//57
f 55//58 54//58 62//58 63//58
f 56//59 55//59 63//59 64//59
f 57//60 56//60 64//60 65//60
f 58//61 57//61 65//61 66//61
f 59//62 58//62 66//62 67//62
f 108//63 59//63 67//63
f 53//64 52//64 60//64 61//64
f 66//65 65//65 73//65 74//65
f 67//66 66//66 74//66 75//66
f 108//67 67//67 75//67
f 61//68 60//68 68//68 69//68
f 62//69 61//69 69//69 70//69
f 63//70 62//70 70//70 71//70
f 64//71 63//71 71//71 72//71
f 65//72 64//72 72//72 73//72
f 71//73 70//73 78//73 79//73
f 72//74 71//74 79//74 80//74
f 73//75 72//75 80//75 81//75
f 74//76 73//76 81//76 82//76
f 75//77 74//77 82//77 83//77
f 108//78 75//78 83//78
f 69//79 68//79 76//79 77//79
f 70//80 69//80 77//80 78//80
f 83//81 82//81 90//81 91//81
f 108//82 83//82 91//82
f 77//83 76//83 84//83 85//83
f 78//84 77//84 85//84 86//84
f 79//85 78//85 86//85 87//85
f 80//86 79//86 87//86 88//86
f 81//87 80//87 88//87 89//87
f 82//88 81//88 89//88 90//88
f 88//89 87//89 95//89 96//89
f 89//90 88//90 96//90 97//90
f 90//91 89//91 97//91 98//91
f 91//92 90//92 98//92 99//92
f 108//93 91//93 99//93
f 85//94 84//94 92//94 93//94
f 86//95 85//95 93//95 94//95
f 87//96 86//96 94//96 95//96
f 108//97 99//97 107//97
f 93//98 92//98 100//98 101//98
f 94//99 93//99 101//99 102//99
f 95//100 94//100 102//100 103//100
f 96//101 95//101 103//101 104//101
f 97//102 96//102 104//102 105//102
f 98//103 97//103 105//103 106//103
f 99//104 98//104 106//104 107//104
f 104//105 103//105 112//105 113//105
f 105//106 104//106 113//106 114//106
f 106//107 105//107 114//107 115//107
f 107//108 106//108 115//108 116//108
f 108//109 107//109 116//109
f 101//110 100//110 109//110 110//110
f 102//111 101//111 110//111 111//111
f 103//112 102//112 111//112 112//112
f 108//113 116//113 124//113
f 110//114 109//114 117//114 118//114
f 111//115 110//115 118//115 119//115
f 112//116 111//116 119//116 120//116
f 113//117 112//117 120//117 121//117
f 114//118 113//118 121//118 122//118
f 115//119 114//119 122//119 123//119
f 116//120 115//120 123//120 124//120
f 122//121 121//121 129//121 130//121
f 123//122 122//122 130//122 131//122
f 124//123 123//123 131//123 132//123
f 108//124 124//124 132//124
f 118//125 117//125 125//125 126//125
f 119//126 118//126 126//126 127//126
f 120//127 119//127 127//127 128//127
f 121//128 120//128 128//128 129//128
f 126//129 125//129 133//129 134//129
f 127//130 126//130 134//130 135//130
f 128//131 127//131 135//131 136//131
f 129//132 128//132 136//132 137//132
f 130//133 129//133 137//133 138//133
f 131//134 130//134 138//134 139//134
f 132//135 131//135 139//135 140//135
f 108//136 132//136 140//136
f 138//137 137//137 145//137 146//137
f 139//138 138//138 146//138 147//138
f 140//139 139//139 147//139 148//139
f 108//140 140//140 148//140
f 134//141 133//141 141//141 142//141
f 135//142 134//142 142//142 143//142
f 136//143 135//143 143//143 144//143
f 137//144 136//144 144//144 145//144
f 143//145 142//145 150//145 151//145
f 144//146 143//146 151//146 152//146
f 145//147 144//147 152//147 153//147
f 146//148 145//148 153//148 154//148
f 147//149 146//149 154//149 155//149
f 148//150 147//150 155//150 156//150
f 108//151 148//151 156//151
f 142//152 141//152 149//152 150//152
f 155//153 154//153 162//153 163//153
f 156//154 155//154 163//154 164//154
f 108//155 156//155 164//155
f 150//156 149//156 157//156 158//156
f 151//157 150//157 158//157 159//157
f 152//158 151//158 159//158 160//158
f 153//159 152//159 160//159 161//159
f 154//160 153//160 161//160 162//160
f 160//161 159//161 167//161 168//161
f 161//162 160//162 168//162 169//162
f 162//163 161//163 169//163 170//163
f 163//164 162//164 170//164 171//164
f 164//165 163//165 171//165 172//165
f 108//166 164//166 172//166
f 158//167 157//167 165//167 166//167
f 159//168 158//168 166//168 167//168
f 172//169 171//169 179//169 180//169
f 108//170 172//170 180//170
f 166//171 165//171 173//171 174//171
f 167//172 166//172 174//172 175//172
f 168//173 167//173 175//173 176//173
f 169//174 168//174 176//174 177//174
f 170//175 169//175 177//175 178//175
f 171//176 170//176 178//176 179//176
f 176//177 175//177 183//177 184//177
f 177//178 176//178 184//178 185//178
f 178//179 177//179 185//179 186//179
f 179//180 178//180 186//180 187//180
f 180//181 179//181 187//181 188//181
f 108//182 180//182 188//182
f 174//183 173//183 181//183 182//183
f 175//184 174//184 182//184 183//184
f 188//185 187//185 195//185 196//185
f 108//186 188//186 196//186
f 182//187 181//187 189//187 190//187
f 183//188 182//188 190//188 191//188
f 184//189 183//189 191//189 192//189
f 185//190 184//190 192//190 193//190
f 186//191 185//191 193//191 194//191
f 187//192 186//192 194//192 195//192
f 193//193 192//193 200//193 201//193
f 194//194 193//194 201//194 202//194
f 195//195 194//195 202//195 203//195
f 196//196 195//196 203//196 204//196
f 108//197 196//197 204//197
f 190//198 189//198 197//198 198//198
f 191//199 190//199 198//199 199//199
f 192//200 191//200 199//200 200//200
f 108//201 204//201 212//201
f 198//202 197//202 205//202 206//202
f 199//203 198//203 206//203 207//203
f 200//204 199//204 207//204 208//204
f 201//205 200//205 208//205 209//205
f 202//206 201//206 209//206 210//206
f 203//207 202//207 210//207 211//207
f 204//208 203//208 211//208 212//208
f 209//209 208//209 216//209 217//209
f 210//210 209//210 217//210 218//210
f 211//211 210//211 218//211 219//211
f 212//212 211//212 219//212 220//212
f 108//213 212//213 220//213
f 206//214 205//214 213//214 214//214
f 207//215 206//215 214//215 215//215
f 208//216 207//216 215//216 216//216
f 108//217 220//217 228//217
f 214//218 213//218 221//218 222//218
f 215//219 214//219 222//219 223//219
f 216//220 215//220 223//220 224//220
f 217//221 216//221 224//221 225//221
f 218//222 217//222 225//222 226//222
f 219//223 218//223 226//223 227//223
f 220//224 219//224 227//224 228//224
f 226//225 225//225 233//225 234//225
f 227//226 226//226 234//226 235//226
f 228//227 227//227 235//227 236//227
f 108//228 228//228 236//228
f 222//229 221//229 229//229 230//229
f 223//230 222//230 230//230 231//230
f 224//231 223//231 231//231 232//231
f 225//232 224//232 232//232 233//232
f 231//233 230//233 238//233 239//233
f 232//234 231//234 239//234 240//234
f 233//235 232//235 240//235 241//235
f 234//236 233//236 241//236 242//236
f 235//237 234//237 242//237 243//237
f 236//238 235//238 243//238 244//238
f 108//239 236//239 244//239
f 230//240 229//240 237//240 238//240
f 243//241 242//241 250//241 251//241
f 244//242 243//242 251//242 252//242
f 1//243 245//243 237//243 229//243 221//243 213//243 205//243 197//243 189//243 181//243 173//243 165//243 157//243 149//243 141//243 133//243 125//243 117//243 109//243 100//243 92//243 84//243 76//243 68//243 60//243 52//243 44//243 36//243 28//243 20//243 12//243 4//243
f 108//244 244//244 252//244
f 238//245 237//245 245//245 246//245
f 239//246 238//246 246//246 247//246
f 240//247 239//247 247//247 248//247
f 241//248 240//248 248//248 249//248
f 242//249 241//249 249//249 250//249
f 247//250 246//250 2//250 253//250
f 248//251 247//251 253//251 254//251
f 249//252 248//252 254//252 255//252
f 250//253 249//253 255//253 3//253
f 251//254 250//254 3//254 256//254
f 252//255 251//255 256//255 257//255
f 108//256 252//256 257//256
f 246//257 245//257 1//257 2//257
